<svg width="15" height="15" viewBox="0 0 15 15" fill="none" xmlns="http://www.w3.org/2000/svg">
<path d="M3.1861 11.3293V14.2822C3.1861 14.2966 3.1876 14.311 3.19045 14.3253L3.19645 14.3452L3.2029 14.3659C3.20845 14.3793 3.21535 14.392 3.22345 14.4039V14.404L3.22675 14.4079L3.2506 14.4366L3.26695 14.4501L3.28345 14.4631L3.30235 14.4735L3.32095 14.4831L3.34165 14.4895L3.36145 14.4954L3.3976 14.4989L3.4039 14.5H3.40405C3.4183 14.5 3.4327 14.4985 3.4468 14.4957L3.4723 14.4879L3.48745 14.4831C3.5011 14.4774 3.514 14.4705 3.526 14.4622L6.29425 12.5884C6.46345 12.6017 6.6292 12.6099 6.8005 12.6099H8.6992C10.3005 12.61 11.7499 11.958 12.7987 10.9087C13.848 9.86005 14.5002 8.4106 14.5 6.80935C14.4999 3.60595 11.9035 1.0003 8.69935 1H6.80065C5.1994 0.99985 3.74995 1.65205 2.70115 2.70115C1.6516 3.75055 1 5.2081 1 6.80935C0.99985 8.64205 1.85125 10.2765 3.1861 11.3293ZM3.0091 3.0091C3.98095 2.0377 5.31865 1.43545 6.80065 1.4353H8.69935C10.1814 1.43545 11.5212 2.03755 12.4929 3.01105C13.4643 3.98485 14.0644 5.32705 14.0646 6.8092C14.0644 8.29105 13.4625 9.6289 12.4909 10.6007C11.5191 11.5723 10.1814 12.1743 8.69935 12.1744H6.80065C6.6157 12.1744 6.4399 12.166 6.2542 12.1492H6.2449L6.2215 12.1495L6.2011 12.1516L6.1807 12.156L6.15925 12.1624L6.14185 12.1699L6.1201 12.1816L6.1123 12.1858L3.62155 13.872V11.2252L3.62005 11.2108L3.6178 11.1889L3.6127 11.1676L3.6067 11.1484L3.59755 11.128L3.5881 11.1106L3.57505 11.0923L3.5626 11.0773L3.54445 11.0605L3.5353 11.052C2.2552 10.081 1.43545 8.5429 1.4353 6.80965C1.43545 5.32735 2.038 3.9805 3.0091 3.0091Z" fill="white" stroke="white" stroke-width="0.5"/>
</svg>
