<svg width="15" height="15" viewBox="0 0 15 15" fill="none" xmlns="http://www.w3.org/2000/svg">
<path d="M13.591 2.01205H10.6095V1.44502C10.6144 1.25701 10.5816 1.06992 10.513 0.894794C10.4444 0.719669 10.3415 0.560056 10.2102 0.425371C10.0789 0.290686 9.92198 0.183657 9.74867 0.1106C9.57536 0.0375429 9.38918 -6.33741e-05 9.2011 8.01674e-08H5.7989C5.61082 -6.33741e-05 5.42464 0.0375429 5.25133 0.1106C5.07802 0.183657 4.9211 0.290686 4.78982 0.425371C4.65855 0.560056 4.55558 0.719669 4.48699 0.894794C4.4184 1.06992 4.38558 1.25701 4.39046 1.44502V2.01205H1.40896C1.22353 2.00446 1.03851 2.03508 0.865406 2.10201C0.692303 2.16894 0.534814 2.27076 0.402726 2.40113C0.270637 2.53151 0.16677 2.68765 0.0975801 2.85987C0.0283898 3.03208 -0.0046459 3.21668 0.000525632 3.4022V11.7248C-0.00435951 11.9128 0.0284612 12.0999 0.0970514 12.275C0.165642 12.4501 0.268612 12.6098 0.399887 12.7444C0.531162 12.8791 0.688083 12.9862 0.861392 13.0592C1.0347 13.1323 1.22089 13.1699 1.40896 13.1698H13.591C13.7791 13.1699 13.9653 13.1323 14.1386 13.0592C14.3119 12.9862 14.4688 12.8791 14.6001 12.7444C14.7314 12.6098 14.8344 12.4501 14.903 12.275C14.9715 12.0999 15.0044 11.9128 14.9995 11.7248V3.4022C15.0046 3.21668 14.9716 3.03208 14.9024 2.85987C14.8332 2.68765 14.7294 2.53151 14.5973 2.40113C14.4652 2.27076 14.3077 2.16894 14.1346 2.10201C13.9615 2.03508 13.7765 2.00446 13.591 2.01205ZM5.12212 1.44502C5.11714 1.35312 5.13097 1.26116 5.16274 1.17478C5.19452 1.0884 5.24358 1.00941 5.30693 0.942635C5.37028 0.875863 5.44658 0.822714 5.53117 0.786438C5.61576 0.750162 5.70686 0.731522 5.7989 0.731656H9.2011C9.29314 0.731522 9.38424 0.750162 9.46883 0.786438C9.55342 0.822714 9.62972 0.875863 9.69307 0.942635C9.75642 1.00941 9.80548 1.0884 9.83726 1.17478C9.86903 1.26116 9.88286 1.35312 9.87788 1.44502V2.01205H5.12212V1.44502ZM13.591 12.4382H1.40896C1.31692 12.4383 1.22582 12.4196 1.14123 12.3834C1.05664 12.3471 0.980341 12.2939 0.916993 12.2272C0.853646 12.1604 0.804583 12.0814 0.772807 11.995C0.74103 11.9086 0.727206 11.8167 0.732182 11.7248V9.32861C0.932795 9.45954 1.16971 9.52357 1.40896 9.51153H5.12212V10.5724C5.13855 10.6795 5.19101 10.7777 5.27083 10.8509C5.35065 10.924 5.45306 10.9678 5.56111 10.9748H9.43889C9.54694 10.9678 9.64935 10.924 9.72917 10.8509C9.80899 10.7777 9.86145 10.6795 9.87788 10.5724V9.51153H13.591C13.8303 9.52357 14.0672 9.45954 14.2678 9.32861V11.7248C14.2728 11.8167 14.259 11.9086 14.2272 11.995C14.1954 12.0814 14.1464 12.1604 14.083 12.2272C14.0197 12.2939 13.9434 12.3471 13.8588 12.3834C13.7742 12.4196 13.6831 12.4383 13.591 12.4382V12.4382ZM5.85377 10.2432V8.41404H9.14623V10.2432H5.85377ZM14.2678 8.06651C14.2728 8.15841 14.259 8.25037 14.2272 8.33675C14.1954 8.42313 14.1464 8.50212 14.083 8.56889C14.0197 8.63567 13.9434 8.68881 13.8588 8.72509C13.7742 8.76137 13.6831 8.78001 13.591 8.77987H9.87788V7.99334C9.87788 7.79214 9.64009 7.68239 9.43889 7.68239H5.56111C5.35991 7.68239 5.12212 7.79214 5.12212 7.99334V8.77987H1.40896C1.31692 8.78001 1.22582 8.76137 1.14123 8.72509C1.05664 8.68881 0.980341 8.63567 0.916993 8.56889C0.853646 8.50212 0.804583 8.42313 0.772807 8.33675C0.74103 8.25037 0.727206 8.15841 0.732182 8.06651V3.4022C0.726539 3.31268 0.740329 3.223 0.772605 3.13931C0.80488 3.05562 0.854878 2.9799 0.919167 2.91734C0.983457 2.85479 1.06052 2.80689 1.14506 2.77692C1.2296 2.74695 1.31963 2.73562 1.40896 2.74371H13.591C13.6804 2.73562 13.7704 2.74695 13.8549 2.77692C13.9395 2.80689 14.0165 2.85479 14.0808 2.91734C14.1451 2.9799 14.1951 3.05562 14.2274 3.13931C14.2597 3.223 14.2735 3.31268 14.2678 3.4022V8.06651Z" fill="white"/>
</svg>
